<?xml version="1.0" encoding="UTF-8" standalone="no"?>
<svg
   xmlns:dc="http://purl.org/dc/elements/1.1/"
   xmlns:cc="http://creativecommons.org/ns#"
   xmlns:rdf="http://www.w3.org/1999/02/22-rdf-syntax-ns#"
   xmlns:svg="http://www.w3.org/2000/svg"
   xmlns="http://www.w3.org/2000/svg"
   xmlns:sodipodi="http://sodipodi.sourceforge.net/DTD/sodipodi-0.dtd"
   xmlns:inkscape="http://www.inkscape.org/namespaces/inkscape"
   width="130.99335mm"
   height="131.37512mm"
   viewBox="0 0 130.99335 131.37512"
   version="1.1"
   id="svg8"
   inkscape:version="1.0 (4035a4fb49, 2020-05-01)"
   sodipodi:docname="like-reaction.svg">
  <defs
     id="defs2" />
  <sodipodi:namedview
     id="base"
     pagecolor="#ffffff"
     bordercolor="#666666"
     borderopacity="1.0"
     inkscape:pageopacity="0.0"
     inkscape:pageshadow="2"
     inkscape:zoom="1.4"
     inkscape:cx="140.64306"
     inkscape:cy="311.19688"
     inkscape:document-units="mm"
     inkscape:current-layer="layer1"
     inkscape:document-rotation="0"
     showgrid="false"
     inkscape:window-width="1920"
     inkscape:window-height="1001"
     inkscape:window-x="-9"
     inkscape:window-y="-9"
     inkscape:window-maximized="1" />
  <metadata
     id="metadata5">
    <rdf:RDF>
      <cc:Work
         rdf:about="">
        <dc:format>image/svg+xml</dc:format>
        <dc:type
           rdf:resource="http://purl.org/dc/dcmitype/StillImage" />
        <dc:title></dc:title>
      </cc:Work>
    </rdf:RDF>
  </metadata>
  <g
     inkscape:label="Layer 1"
     inkscape:groupmode="layer"
     id="layer1">
    <g
       transform="translate(3.1306079,3.3214979)"
       id="g861">
      <path
         sodipodi:open="true"
         d="M 62.555058,124.92113 A 62.555058,62.555058 0 0 1 8.3807889,93.643599 62.555058,62.555058 0 0 1 8.3807887,31.088541 62.555058,62.555058 0 0 1 62.555058,-0.18898773"
         sodipodi:arc-type="arc"
         sodipodi:end="4.712389"
         sodipodi:start="1.5707963"
         sodipodi:ry="62.555058"
         sodipodi:rx="62.555058"
         sodipodi:cy="62.36607"
         sodipodi:cx="62.555058"
         sodipodi:type="arc"
         id="path16"
         style="fill:#ffe680;stroke:#000000;stroke-width:6.265;stroke-miterlimit:4;stroke-dasharray:none;stroke-opacity:1" />
      <path
         sodipodi:nodetypes="ccc"
         id="path18"
         d="m 23.434524,39.49851 c 9.906445,-10.144406 20.017086,-11.50834 30.427083,0 -9.402719,-10.354987 -19.512603,-10.809672 -30.427083,0 z"
         style="fill:none;stroke:#000000;stroke-width:5.265;stroke-linecap:butt;stroke-linejoin:miter;stroke-miterlimit:4;stroke-dasharray:none;stroke-opacity:1" />
      <path
         d="m 62.36607,98.273811 a 36.663689,16.252975 0 0 1 -31.751686,-8.126487 36.663689,16.252975 0 0 1 0,-16.252976 36.663689,16.252975 0 0 1 31.751686,-8.126488"
         sodipodi:arc-type="arc"
         sodipodi:open="true"
         sodipodi:end="4.712389"
         sodipodi:start="1.5707963"
         sodipodi:ry="16.252975"
         sodipodi:rx="36.663689"
         sodipodi:cy="82.020836"
         sodipodi:cx="62.36607"
         sodipodi:type="arc"
         id="path843"
         style="fill:#ffe680;stroke:#000000;stroke-width:6.26499;stroke-miterlimit:4;stroke-dasharray:none;stroke-opacity:1" />
      <path
         transform="scale(-1,1)"
         style="fill:#ffe680;stroke:#000000;stroke-width:6.26499;stroke-miterlimit:4;stroke-dasharray:none;stroke-opacity:1"
         id="path16-4"
         sodipodi:type="arc"
         sodipodi:cx="-62.177074"
         sodipodi:cy="62.366058"
         sodipodi:rx="62.555061"
         sodipodi:ry="62.555061"
         sodipodi:start="1.5707963"
         sodipodi:end="4.712389"
         sodipodi:arc-type="arc"
         d="m -62.177074,124.92112 a 62.555061,62.555061 0 0 1 -54.174276,-31.27753 62.555061,62.555061 0 0 1 0,-62.555063 62.555061,62.555061 0 0 1 54.174276,-31.27752999"
         sodipodi:open="true" />
      <path
         style="fill:none;stroke:#000000;stroke-width:5.265;stroke-linecap:butt;stroke-linejoin:miter;stroke-miterlimit:4;stroke-dasharray:none;stroke-opacity:1"
         d="m 101.29761,39.498502 c -9.906454,-10.144405 -20.017094,-11.50834 -30.427094,0 9.40272,-10.354987 19.51261,-10.809671 30.427094,0 z"
         id="path18-7"
         sodipodi:nodetypes="ccc" />
      <path
         transform="scale(-1,1)"
         style="fill:#ffe680;stroke:#000000;stroke-width:6.26499;stroke-miterlimit:4;stroke-dasharray:none;stroke-opacity:1"
         id="path843-7"
         sodipodi:type="arc"
         sodipodi:cx="-62.36607"
         sodipodi:cy="82.020836"
         sodipodi:rx="36.663689"
         sodipodi:ry="16.252975"
         sodipodi:start="1.5355485"
         sodipodi:end="4.7176042"
         sodipodi:open="true"
         sodipodi:arc-type="arc"
         d="M -61.074022,98.263716 A 36.663689,16.252975 0 0 1 -93.711366,90.45166 36.663689,16.252975 0 0 1 -94.268317,74.011064 36.663689,16.252975 0 0 1 -62.174861,65.768081" />
    </g>
  </g>
</svg>
